<svg width="239" height="268" viewBox="0 0 239 268" fill="none" xmlns="http://www.w3.org/2000/svg">
<path d="M109.295 147.081H103.289V263.347H109.295V147.081Z" fill="#00ADFF"/>
<path d="M38.0657 197.343H47.1518C47.8014 197.344 48.4272 197.606 48.9066 198.079C49.3859 198.552 49.6843 199.201 49.7431 199.899H57.462L47.1518 178.378L38.0657 197.343Z" fill="#00ADFF"/>
<path d="M191.848 197.343H200.93L191.848 178.378L181.525 199.899H189.246C189.307 199.2 189.607 198.55 190.088 198.077C190.569 197.604 191.197 197.342 191.848 197.343Z" fill="#00ADFF"/>
<path d="M100.854 143.314H138.039C139.676 143.312 141.273 142.765 142.611 141.747C143.949 140.73 144.964 139.293 145.517 137.631C146.07 135.969 146.134 134.164 145.701 132.461C145.267 130.758 144.357 129.241 143.095 128.117C144.804 126.086 145.753 123.443 145.756 120.701V88.0474C145.756 87.9815 145.739 87.9111 145.733 87.8429C145.666 86.212 145.197 84.6297 144.375 83.2587C143.554 81.8877 142.408 80.7776 141.056 80.0425C139.705 79.3074 138.196 78.9739 136.685 79.0762C135.174 79.1785 133.716 79.713 132.46 80.6247C131.213 78.619 129.283 77.2248 127.088 76.745C124.893 76.2651 122.612 76.7384 120.739 78.0619C119.984 76.738 118.932 75.6406 117.68 74.8714C116.428 74.1021 115.017 73.6858 113.576 73.661C112.443 73.6634 111.323 73.917 110.285 74.4062V54.3648C110.285 53.1564 110.065 51.9599 109.636 50.8435C109.207 49.7271 108.579 48.7127 107.786 47.8582C106.994 47.0038 106.053 46.326 105.018 45.8636C103.983 45.4012 102.874 45.1631 101.753 45.1631C100.633 45.1631 99.5233 45.4012 98.4881 45.8636C97.453 46.326 96.5124 47.0038 95.7201 47.8582C94.9278 48.7127 94.2994 49.7271 93.8706 50.8435C93.4418 51.9599 93.2211 53.1564 93.2211 54.3648V99.6256C93.2144 100.145 93.0171 100.64 92.6724 101.003C92.3277 101.366 91.8636 101.567 91.382 101.561C91.1418 101.564 90.9038 101.512 90.6827 101.411C90.4616 101.31 90.2622 101.161 90.0969 100.973C90.082 100.965 90.069 100.953 90.059 100.939C90.059 100.939 90.0442 100.912 90.0274 100.9L83.425 93.8729C81.8178 92.1901 79.6613 91.2567 77.4213 91.2743C75.1813 91.2919 73.0377 92.259 71.4533 93.9668C69.869 95.6746 68.9711 97.986 68.9536 100.402C68.9362 102.817 69.8005 105.144 71.36 106.878L93.6972 130.973C93.1024 132.281 92.827 133.732 92.897 135.188C92.9669 136.643 93.3799 138.056 94.097 139.291C94.814 140.527 95.8114 141.544 96.9948 142.248C98.1782 142.952 99.5085 143.319 100.86 143.314H100.854ZM138.039 137.67H100.854C100.129 137.671 99.4348 137.361 98.9216 136.81C98.4083 136.259 98.1183 135.511 98.115 134.73C98.1188 133.952 98.4074 133.207 98.9178 132.657C99.4283 132.107 100.119 131.796 100.841 131.793H138.039C138.748 131.814 139.422 132.133 139.917 132.682C140.412 133.231 140.689 133.966 140.689 134.732C140.689 135.497 140.412 136.233 139.917 136.781C139.422 137.33 138.748 137.649 138.039 137.67ZM75.0488 102.886C74.727 102.559 74.4695 102.165 74.2917 101.729C74.114 101.292 74.0195 100.821 74.014 100.344C74.0085 99.8673 74.0921 99.3941 74.2597 98.9528C74.4274 98.5115 74.6757 98.1111 74.9899 97.7755C75.3041 97.4398 75.6777 97.1758 76.0884 96.9992C76.4992 96.8226 76.9388 96.737 77.3809 96.7474C77.823 96.7579 78.2586 96.8642 78.6618 97.0601C79.065 97.256 79.4275 97.5374 79.7277 97.8875L86.3744 104.926C86.3821 104.936 86.3914 104.945 86.4017 104.951C87.3836 106.021 88.6378 106.753 90.0056 107.054C91.3734 107.354 92.7931 107.21 94.0849 106.64C95.3767 106.069 96.4825 105.098 97.2622 103.85C98.0419 102.601 98.4604 101.131 98.4647 99.6256V54.3648C98.4647 53.4224 98.8118 52.5185 99.4297 51.8521C100.048 51.1858 100.886 50.8114 101.76 50.8114C102.633 50.8114 103.471 51.1858 104.089 51.8521C104.707 52.5185 105.054 53.4224 105.054 54.3648V88.4132C105.054 89.1616 105.33 89.8794 105.821 90.4086C106.311 90.9377 106.977 91.2351 107.671 91.2351C108.365 91.2351 109.03 90.9377 109.521 90.4086C110.012 89.8794 110.287 89.1616 110.287 88.4132V83.0558C110.293 82.305 110.502 81.5723 110.888 80.9474C111.176 80.4549 111.572 80.0471 112.042 79.7604C112.512 79.4737 113.04 79.3172 113.58 79.3047C114.472 79.3571 115.312 79.7769 115.925 80.4775C116.539 81.178 116.88 82.1058 116.877 83.0694V90.2876C116.877 91.036 117.153 91.7538 117.644 92.283C118.134 92.8122 118.8 93.1095 119.494 93.1095C120.188 93.1095 120.853 92.8122 121.344 92.283C121.835 91.7538 122.11 91.036 122.11 90.2876V85.7618C122.11 84.8193 122.457 83.9155 123.075 83.2491C123.693 82.5827 124.531 82.2083 125.405 82.2083C126.279 82.2083 127.117 82.5827 127.735 83.2491C128.353 83.9155 128.7 84.8193 128.7 85.7618V92.9913C128.719 93.7256 129.003 94.4227 129.492 94.9347C129.98 95.4467 130.634 95.7331 131.315 95.7331C131.996 95.7331 132.651 95.4467 133.139 94.9347C133.627 94.4227 133.912 93.7256 133.931 92.9913V88.2564C133.931 87.314 134.278 86.4102 134.896 85.7438C135.514 85.0774 136.352 84.703 137.226 84.703C138.1 84.703 138.938 85.0774 139.556 85.7438C140.173 86.4102 140.521 87.314 140.521 88.2564V120.701C140.521 122.147 139.988 123.534 139.04 124.557C138.091 125.579 136.805 126.154 135.465 126.154H100.845C99.6551 126.156 98.4807 126.447 97.4092 127.006L75.0488 102.886Z" fill="#023750"/>
<path d="M138.039 131.793H100.845C100.124 131.796 99.4324 132.107 98.922 132.657C98.4115 133.207 98.123 133.952 98.1191 134.73C98.1225 135.511 98.4125 136.259 98.9257 136.81C99.439 137.361 100.134 137.67 100.858 137.67H138.039C138.748 137.649 139.422 137.33 139.917 136.781C140.412 136.233 140.689 135.497 140.689 134.732C140.689 133.966 140.412 133.231 139.917 132.682C139.422 132.133 138.748 131.814 138.039 131.793Z" fill="#00ADFF"/>
<path d="M100.845 126.149H135.477C136.818 126.149 138.104 125.575 139.052 124.552C140 123.529 140.533 122.142 140.533 120.696V88.2564C140.511 87.3298 140.155 86.4491 139.54 85.802C138.924 85.155 138.099 84.7928 137.239 84.7928C136.38 84.7928 135.555 85.155 134.939 85.802C134.324 86.4491 133.967 87.3298 133.946 88.2564V92.9913C133.926 93.7255 133.642 94.4227 133.154 94.9347C132.665 95.4466 132.011 95.7331 131.33 95.7331C130.649 95.7331 129.995 95.4466 129.506 94.9347C129.018 94.4227 128.734 93.7255 128.715 92.9913V85.7617C128.715 84.8193 128.367 83.9155 127.75 83.2491C127.132 82.5827 126.294 82.2083 125.42 82.2083C124.546 82.2083 123.708 82.5827 123.09 83.2491C122.472 83.9155 122.125 84.8193 122.125 85.7617V90.2876C122.106 91.0224 121.821 91.7202 121.333 92.2326C120.844 92.745 120.189 93.0316 119.507 93.0316C118.826 93.0316 118.171 92.745 117.682 92.2326C117.193 91.7202 116.909 91.0224 116.89 90.2876V83.0694C116.892 82.1058 116.551 81.178 115.938 80.4774C115.324 79.7769 114.485 79.3571 113.593 79.3047C113.053 79.3175 112.525 79.4742 112.056 79.7609C111.587 80.0475 111.19 80.4552 110.903 80.9473C110.516 81.5718 110.307 82.3048 110.302 83.0558V88.4132C110.283 89.148 109.999 89.8458 109.51 90.3582C109.021 90.8705 108.366 91.1572 107.685 91.1572C107.003 91.1572 106.348 90.8705 105.859 90.3582C105.371 89.8458 105.086 89.148 105.067 88.4132V54.3648C105.067 53.4223 104.72 52.5185 104.102 51.8521C103.484 51.1857 102.646 50.8113 101.772 50.8113C100.898 50.8113 100.06 51.1857 99.4423 51.8521C98.8244 52.5185 98.4773 53.4223 98.4773 54.3648V99.6256C98.4736 101.131 98.0555 102.601 97.2761 103.85C96.4967 105.099 95.391 106.07 94.0992 106.641C92.8074 107.211 91.3877 107.355 90.0199 107.054C88.6522 106.753 87.398 106.022 86.4165 104.951C86.4008 104.946 86.3864 104.938 86.3743 104.926L79.7235 97.8829C79.4233 97.5328 79.0608 97.2514 78.6576 97.0555C78.2544 96.8596 77.8187 96.7533 77.3766 96.7429C76.9345 96.7324 76.495 96.818 76.0842 96.9946C75.6734 97.1713 75.2998 97.4353 74.9857 97.7709C74.6715 98.1065 74.4232 98.5069 74.2555 98.9482C74.0879 99.3895 74.0043 99.8627 74.0098 100.34C74.0153 100.816 74.1097 101.287 74.2875 101.724C74.4653 102.161 74.7227 102.554 75.0445 102.881L97.4092 127.006C98.4803 126.445 99.6548 126.153 100.845 126.149Z" fill="#00ADFF"/>
<path d="M103.289 146.59C103.299 146.213 103.238 145.837 103.111 145.485C102.984 145.133 102.793 144.813 102.549 144.542C102.305 144.271 102.013 144.056 101.691 143.909C101.368 143.762 101.021 143.686 100.671 143.686C100.321 143.686 99.9746 143.762 99.6521 143.909C99.3296 144.056 99.0377 144.271 98.7936 144.542C98.5496 144.813 98.3584 145.133 98.2313 145.485C98.1042 145.837 98.0439 146.213 98.0538 146.59V265.19C98.0731 265.924 98.3574 266.622 98.8462 267.134C99.3349 267.647 99.9897 267.934 100.671 267.934C101.353 267.934 102.008 267.647 102.497 267.134C102.985 266.622 103.27 265.924 103.289 265.19V146.59Z" fill="#023750"/>
<path d="M138.214 143.766C137.87 143.766 137.529 143.839 137.211 143.981C136.893 144.122 136.605 144.33 136.361 144.593C136.118 144.855 135.925 145.167 135.794 145.509C135.662 145.852 135.595 146.219 135.595 146.59V265.19C135.595 265.939 135.871 266.657 136.362 267.187C136.853 267.716 137.519 268.014 138.214 268.014C138.908 268.014 139.574 267.716 140.065 267.187C140.556 266.657 140.832 265.939 140.832 265.19V146.59C140.832 146.219 140.765 145.852 140.633 145.509C140.502 145.167 140.309 144.855 140.066 144.593C139.823 144.33 139.534 144.122 139.216 143.981C138.898 143.839 138.558 143.766 138.214 143.766Z" fill="#023750"/>
<path d="M94.2787 199.222C93.662 198.879 92.9444 198.814 92.2833 199.041C91.6222 199.268 91.0716 199.768 90.7521 200.433L77.1808 228.76L49.4757 170.937L49.4588 170.91C49.4041 170.806 49.3429 170.706 49.2755 170.61C49.2468 170.553 49.2129 170.499 49.1744 170.449C49.1168 170.374 49.0541 170.304 48.9869 170.24C48.9279 170.176 48.8732 170.108 48.81 170.051C48.7468 169.994 48.7004 169.974 48.6477 169.929C48.5593 169.867 48.4729 169.794 48.3781 169.742C48.3781 169.742 48.3612 169.742 48.3528 169.724C48.2961 169.696 48.2377 169.673 48.178 169.654C48.0882 169.607 47.9961 169.566 47.902 169.531C47.824 169.508 47.7398 169.495 47.6597 169.476C47.5759 169.455 47.4907 169.439 47.4048 169.431C47.3221 169.424 47.239 169.424 47.1562 169.431C47.0692 169.424 46.9819 169.424 46.895 169.431C46.8143 169.44 46.7341 169.454 46.6548 169.472C46.5684 169.495 46.4821 169.504 46.3978 169.531C46.3135 169.558 46.2208 169.606 46.1345 169.649C46.0481 169.692 46.0102 169.695 45.9512 169.724C45.9406 169.724 45.9343 169.74 45.9238 169.742C45.8318 169.797 45.7438 169.859 45.6605 169.929C45.6022 169.966 45.5459 170.007 45.4919 170.051C45.4287 170.108 45.3739 170.176 45.315 170.24C45.249 170.303 45.187 170.372 45.1296 170.444C45.0923 170.496 45.0578 170.55 45.0263 170.606C44.961 170.706 44.8957 170.806 44.841 170.91L44.8262 170.937L0.292845 263.883C0.13499 264.212 0.0388152 264.572 0.00981844 264.941C-0.0191783 265.31 0.0195716 265.682 0.123853 266.035C0.228134 266.388 0.395903 266.715 0.617568 266.998C0.839233 267.281 1.11045 267.514 1.41571 267.684C1.78575 267.892 2.19706 268.001 2.61442 268C3.09318 268 3.56259 267.857 3.97131 267.588C4.38003 267.319 4.7123 266.934 4.93178 266.476L35.3587 202.984H47.1562C47.4994 202.984 47.8394 202.912 48.1565 202.77C48.4737 202.629 48.7619 202.421 49.0047 202.16C49.2475 201.898 49.4402 201.587 49.5716 201.245C49.703 200.903 49.7706 200.537 49.7706 200.167C49.7673 200.077 49.7595 199.988 49.7474 199.899C49.6882 199.201 49.3897 198.553 48.9105 198.08C48.4312 197.607 47.8057 197.344 47.1562 197.343H38.0658L47.152 178.378L57.4621 199.899L74.2356 234.908L60.3525 263.883C60.0338 264.548 59.973 265.322 60.1836 266.036C60.3942 266.749 60.8588 267.343 61.4754 267.687C62.092 268.03 62.8099 268.096 63.4712 267.869C64.1326 267.642 64.6832 267.14 65.002 266.476L95.4016 203.023C95.7192 202.358 95.7794 201.584 95.5689 200.872C95.3584 200.159 94.8944 199.566 94.2787 199.222Z" fill="#023750"/>
<path d="M238.707 263.883L194.172 170.937L194.153 170.91C194.102 170.81 194.041 170.715 193.982 170.621C193.923 170.528 193.91 170.499 193.868 170.444C193.813 170.375 193.754 170.31 193.691 170.249C193.632 170.18 193.569 170.114 193.504 170.051C193.453 170.003 193.396 169.969 193.344 169.929C193.251 169.867 193.169 169.794 193.072 169.742C193.072 169.742 193.059 169.726 193.047 169.724C192.988 169.695 192.927 169.674 192.868 169.649C192.78 169.604 192.69 169.565 192.598 169.531C192.514 169.504 192.427 169.49 192.343 169.472C192.263 169.454 192.182 169.44 192.101 169.431C192.013 169.424 191.925 169.424 191.837 169.431C191.757 169.431 191.675 169.431 191.593 169.431C191.511 169.431 191.416 169.465 191.332 169.483C191.248 169.501 191.174 169.515 191.094 169.538C191.014 169.56 190.896 169.62 190.803 169.663C190.753 169.685 190.696 169.701 190.641 169.731L190.622 169.747C190.514 169.808 190.413 169.88 190.319 169.963C190.272 169.99 190.229 170.022 190.188 170.058C190.114 170.13 190.044 170.206 189.977 170.285C189.925 170.339 189.875 170.396 189.828 170.456C189.786 170.512 189.748 170.583 189.701 170.651C189.655 170.719 189.588 170.824 189.541 170.917L189.522 170.949L161.813 228.758L148.242 200.433C147.923 199.768 147.373 199.266 146.712 199.039C146.05 198.812 145.333 198.877 144.716 199.22C144.099 199.564 143.635 200.157 143.424 200.871C143.213 201.584 143.274 202.358 143.592 203.023L173.994 266.476C174.321 267.124 174.871 267.608 175.526 267.824C176.18 268.04 176.887 267.971 177.495 267.632C178.103 267.294 178.564 266.712 178.779 266.011C178.994 265.31 178.946 264.546 178.645 263.883L164.756 234.908L181.532 199.899L191.854 178.378L200.936 197.343H191.848C191.198 197.344 190.572 197.607 190.092 198.08C189.612 198.552 189.313 199.201 189.253 199.899C189.24 199.987 189.231 200.077 189.227 200.167C189.228 200.537 189.296 200.904 189.428 201.246C189.56 201.588 189.753 201.899 189.997 202.161C190.24 202.422 190.529 202.63 190.846 202.771C191.164 202.912 191.504 202.985 191.848 202.984H203.635L234.056 266.476C234.276 266.933 234.609 267.318 235.017 267.586C235.426 267.855 235.894 267.998 236.373 268C236.821 267.997 237.261 267.871 237.65 267.633C238.04 267.395 238.367 267.053 238.599 266.64C238.831 266.228 238.962 265.757 238.978 265.275C238.994 264.792 238.895 264.313 238.69 263.883H238.707Z" fill="#023750"/>
<path d="M79.8057 82.2084H88.2135C88.9075 82.2084 89.573 81.9111 90.0637 81.3819C90.5544 80.8527 90.83 80.1349 90.83 79.3865C90.83 78.6381 90.5544 77.9204 90.0637 77.3912C89.573 76.862 88.9075 76.5647 88.2135 76.5647H79.8436H79.8289C73.3376 76.5647 67.1121 73.7837 62.5221 68.8334C57.932 63.8832 55.3533 57.1692 55.3533 50.1684C55.3533 43.1677 57.932 36.4537 62.5221 31.5035C67.1121 26.5532 73.3376 23.7722 79.8289 23.7722C81.0632 23.7719 82.2957 23.8737 83.5156 24.0766C79.6632 33.2115 79.0369 43.5492 81.7544 53.147C81.9575 53.8623 82.4157 54.4613 83.0283 54.8121C83.6409 55.163 84.3576 55.2371 85.0208 55.0181C85.684 54.799 86.2394 54.3048 86.5648 53.6442C86.8901 52.9835 86.9588 52.2106 86.7557 51.4953C85.4714 47.0001 85.0292 42.2743 85.4546 37.593C85.8801 32.9117 87.1648 28.3685 89.234 24.2278C91.3032 20.0871 94.1154 16.4318 97.5071 13.4745C100.899 10.5172 104.802 8.31715 108.99 7.00236C113.177 5.68758 117.565 5.28435 121.899 5.81616C126.232 6.34797 130.425 7.80418 134.231 10.1C138.038 12.3959 141.383 15.4855 144.072 19.189C146.761 22.8924 148.74 27.1358 149.893 31.672C145.425 33.6585 141.602 37.0273 138.906 41.3537C136.211 45.68 134.763 50.7702 134.746 55.9825C134.746 56.4574 134.759 56.9368 134.784 57.4048C134.821 58.1523 135.132 58.8534 135.648 59.3538C136.164 59.8543 136.843 60.1131 137.536 60.0733C138.23 60.0335 138.88 59.6984 139.344 59.1418C139.808 58.5851 140.048 57.8524 140.011 57.1049C139.99 56.7323 139.981 56.3551 139.981 55.9825C139.98 51.9097 141.099 47.9279 143.196 44.5408C145.293 41.1537 148.275 38.5134 151.763 36.9538C155.252 35.3943 159.091 34.9855 162.795 35.7793C166.499 36.573 169.902 38.5336 172.573 41.4131C175.244 44.2925 177.063 47.9615 177.8 51.956C178.537 55.9505 178.159 60.0911 176.714 63.8541C175.27 67.617 172.822 70.8333 169.682 73.0962C166.542 75.3591 162.851 76.567 159.074 76.567H159.051H149.921C149.227 76.567 148.561 76.8643 148.07 77.3935C147.58 77.9227 147.304 78.6404 147.304 79.3888C147.304 80.1372 147.58 80.855 148.07 81.3842C148.561 81.9134 149.227 82.2106 149.921 82.2106H159.108C162.477 82.2063 165.809 81.4471 168.893 79.9812C171.976 78.5153 174.743 76.3746 177.019 73.6949C179.295 71.0152 181.03 67.8548 182.114 64.414C183.198 60.9733 183.607 57.3272 183.316 53.7068C183.025 50.0865 182.04 46.5708 180.423 43.3827C178.806 40.1945 176.592 37.4034 173.923 35.1861C171.253 32.9689 168.185 31.3739 164.914 30.5022C161.643 29.6305 158.24 29.5012 154.92 30.1225C152.957 22.4816 148.987 15.6163 143.487 10.3547C137.987 5.09309 131.194 1.65983 123.925 0.469027C116.657 -0.721778 109.225 0.380737 102.524 3.64359C95.8238 6.90645 90.1419 12.1903 86.1637 18.8578C82.0947 17.9113 77.8867 17.8978 73.8126 18.8179C69.7384 19.7381 65.8891 21.5714 62.5141 24.1991C59.1392 26.8268 56.314 30.1902 54.2217 34.0711C52.1295 37.952 50.8169 42.2638 50.3692 46.727C49.9214 51.1901 50.3484 55.7049 51.6225 59.9787C52.8965 64.2524 54.9893 68.1896 57.7649 71.535C60.5406 74.8805 63.9373 77.5594 67.7346 79.3981C71.532 81.2368 75.6432 82.1943 79.8057 82.2084Z" fill="#023750"/>
<path d="M155.592 104.572C154.216 104.285 152.819 104.139 151.418 104.136C151.208 104.136 151.012 104.136 150.805 104.154C150.127 104.225 149.501 104.579 149.061 105.14C148.62 105.702 148.401 106.427 148.449 107.16C148.496 107.894 148.808 108.578 149.316 109.068C149.825 109.557 150.491 109.813 151.172 109.781C151.218 109.781 151.269 109.781 151.315 109.781C151.865 109.781 152.419 109.818 152.967 109.875C150.507 116.341 150.193 123.525 152.08 130.211C152.245 130.789 152.577 131.295 153.028 131.654C153.478 132.014 154.024 132.208 154.585 132.209C154.843 132.207 155.1 132.165 155.347 132.084C156.011 131.865 156.567 131.371 156.893 130.711C157.219 130.051 157.289 129.278 157.087 128.562C155.317 122.338 155.912 115.61 158.741 109.859C161.57 104.108 166.401 99.8047 172.172 97.8955C177.944 95.9862 184.182 96.6276 189.514 99.6786C194.847 102.73 198.837 107.94 200.608 114.164C197.435 115.726 194.744 118.236 192.852 121.396C190.961 124.556 189.949 128.234 189.935 131.995C189.935 132.352 189.935 132.706 189.958 133.063C190.007 133.802 190.323 134.491 190.838 134.981C191.353 135.471 192.026 135.724 192.713 135.683C193.399 135.643 194.043 135.314 194.505 134.766C194.968 134.218 195.213 133.497 195.187 132.756C195.174 132.499 195.17 132.247 195.17 131.995C195.17 129.242 195.926 126.551 197.344 124.263C198.762 121.974 200.777 120.19 203.135 119.136C205.493 118.083 208.088 117.807 210.591 118.344C213.095 118.881 215.394 120.207 217.199 122.153C219.003 124.1 220.232 126.58 220.73 129.28C221.227 131.98 220.971 134.778 219.994 137.321C219.017 139.864 217.362 142.037 215.24 143.566C213.117 145.094 210.622 145.91 208.069 145.909H208.036H151.454H151.418C149.809 145.912 148.207 145.665 146.664 145.173C146.006 144.989 145.308 145.088 144.717 145.449C144.125 145.81 143.688 146.405 143.496 147.109C143.305 147.812 143.374 148.567 143.69 149.216C144.006 149.865 144.543 150.356 145.189 150.585C147.196 151.225 149.277 151.55 151.37 151.552H208.124C212.901 151.491 217.462 149.4 220.818 145.733C224.173 142.066 226.052 137.12 226.046 131.968C226.041 126.816 224.151 121.875 220.787 118.217C217.423 114.559 212.857 112.48 208.08 112.431C207.267 112.433 206.456 112.496 205.651 112.617C204.114 107.146 201.168 102.258 197.155 98.5215C193.143 94.7853 188.229 92.3547 182.986 91.5124C177.743 90.67 172.386 91.4506 167.538 93.7633C162.691 96.076 158.551 99.8258 155.602 104.576L155.592 104.572Z" fill="#023750"/>
<path d="M20.2032 162.433H71.7813C74.07 162.44 76.3357 161.941 78.4382 160.966C80.5408 159.991 82.4356 158.561 84.0053 156.765C85.5751 154.969 86.7865 152.845 87.5645 150.523C88.3426 148.202 88.6708 145.733 88.5289 143.27C88.3869 140.806 87.7779 138.4 86.7393 136.201C85.7008 134.001 84.2549 132.055 82.491 130.482C80.7272 128.909 78.6829 127.744 76.4846 127.057C74.2863 126.37 71.9807 126.177 69.7105 126.49C68.2692 121.514 65.5564 117.078 61.8833 113.69C58.2102 110.302 53.7257 108.1 48.9446 107.336C44.1636 106.572 39.2797 107.278 34.8535 109.372C30.4274 111.465 26.6384 114.863 23.9215 119.174C22.7019 118.931 21.4645 118.808 20.2243 118.804C14.8605 118.8 9.71491 121.094 5.91956 125.182C2.12421 129.269 -0.0100355 134.815 -0.0136672 140.6C-0.017299 146.385 2.10998 151.934 5.90019 156.028C9.69041 160.121 14.8331 162.422 20.1969 162.426L20.2032 162.433ZM20.2243 124.445C20.5866 124.445 20.9448 124.445 21.3029 124.484C19.1438 130.34 18.8956 136.815 20.5993 142.844C20.8024 143.56 21.2608 144.159 21.8738 144.511C22.4868 144.862 23.204 144.936 23.8678 144.717C24.5316 144.498 25.0875 144.004 25.4132 143.343C25.739 142.682 25.8079 141.908 25.6048 141.192C23.9881 135.604 24.4958 129.553 27.0162 124.369C29.5366 119.185 33.8633 115.293 39.0444 113.55C44.2255 111.806 49.8366 112.354 54.6434 115.072C59.4501 117.79 63.0588 122.456 64.6755 128.044C61.7962 129.507 59.3605 131.82 57.6512 134.716C55.9418 137.611 55.0289 140.97 55.0184 144.402C55.0184 144.73 55.0184 145.064 55.0437 145.389C55.0609 145.76 55.1461 146.124 55.2944 146.46C55.4427 146.796 55.6511 147.097 55.9077 147.346C56.1643 147.595 56.464 147.786 56.7895 147.91C57.115 148.033 57.4599 148.086 57.8044 148.065C58.1489 148.044 58.4861 147.95 58.7967 147.788C59.1072 147.626 59.385 147.399 59.614 147.121C59.843 146.842 60.0187 146.518 60.131 146.166C60.2433 145.814 60.2899 145.442 60.2683 145.07C60.2577 144.843 60.2514 144.627 60.2514 144.402C60.2523 141.95 60.9273 139.553 62.1913 137.514C63.4552 135.476 65.2513 133.887 67.3524 132.949C69.4536 132.011 71.7654 131.766 73.9955 132.245C76.2257 132.724 78.2741 133.906 79.8818 135.64C81.4894 137.374 82.5841 139.584 83.0274 141.989C83.4708 144.395 83.2428 146.888 82.3724 149.154C81.502 151.419 80.0282 153.356 78.1374 154.718C76.2466 156.08 74.0237 156.808 71.7497 156.808H20.2243C16.2772 156.757 12.5076 155.031 9.73302 152.003C6.9584 148.975 5.40238 144.889 5.40238 140.632C5.40238 136.375 6.9584 132.289 9.73302 129.261C12.5076 126.233 16.2772 124.507 20.2243 124.456V124.445Z" fill="#023750"/>
</svg>
