<svg width="241" height="257" viewBox="0 0 241 257" fill="none" xmlns="http://www.w3.org/2000/svg">
<g clip-path="url(#clip0_2002_285)">
<path d="M117.504 176.961V176.944V176.928C114.579 168.549 109.856 160.911 103.665 154.55C97.4738 148.19 89.9654 143.26 81.6664 140.108V106.524C82.8703 105.802 83.8666 104.78 84.5586 103.559C85.2506 102.337 85.6147 100.958 85.6156 99.5543V99.3159C85.6139 97.1575 84.7558 95.0879 83.2296 93.5611C81.7034 92.0342 79.6337 91.1748 77.4745 91.1714H77.4572V82.938C77.4572 82.2264 77.1754 81.5437 76.6734 81.039C76.1715 80.5344 75.4901 80.2489 74.7782 80.2449H46.0114C45.6576 80.2449 45.3072 80.3145 44.9804 80.4499C44.6535 80.5852 44.3565 80.7836 44.1063 81.0337C43.8561 81.2838 43.6577 81.5807 43.5223 81.9074C43.3869 82.2342 43.3172 82.5844 43.3172 82.938V91.1714H43.302C41.1424 91.1748 39.0723 92.0341 37.5454 93.5608C36.0185 95.0875 35.1595 97.1571 35.1566 99.3159V99.5543C35.1598 100.958 35.5256 102.337 36.2186 103.558C36.9117 104.779 37.9084 105.8 39.1123 106.522V140.106C30.8136 143.258 23.3065 148.19 17.1186 154.553C10.9306 160.917 6.2121 168.558 3.29466 176.939C0.16301 186.03 -0.751196 195.737 0.628141 205.252C2.00748 214.767 5.64046 223.816 11.2247 231.644C16.8089 239.472 24.1829 245.854 32.7328 250.258C41.2826 254.661 50.7612 256.96 60.3794 256.963C69.9976 256.965 79.4772 254.671 88.0293 250.271C96.5813 245.871 103.958 239.493 109.547 231.668C115.135 223.843 118.772 214.796 120.156 205.282C121.54 195.767 120.631 186.06 117.504 176.967V176.961ZM48.7034 85.6269H72.0753V91.1714H48.7034V85.6269ZM40.532 99.3159C40.5326 98.584 40.8237 97.8823 41.3414 97.3647C41.8591 96.8472 42.5612 96.5562 43.2934 96.5556H45.9962H74.7652H77.4659C78.1975 96.5567 78.8987 96.8481 79.4156 97.3656C79.9325 97.8831 80.2229 98.5846 80.2229 99.3159V99.5521C80.2229 100.284 79.9326 100.985 79.4158 101.503C78.8989 102.021 78.1977 102.313 77.4659 102.315H43.302C42.9386 102.315 42.5785 102.245 42.2425 102.106C41.9064 101.968 41.601 101.764 41.3437 101.508C41.0864 101.251 40.8823 100.946 40.743 100.611C40.6037 100.275 40.532 99.9154 40.532 99.5521V99.3159ZM42.6648 144.55L44.4898 143.932V107.697H76.2824V143.923L78.1074 144.55C85.7613 147.182 92.7458 151.458 98.57 157.076C104.394 162.695 108.917 169.521 111.82 177.074C111.677 177.214 111.539 177.355 111.404 177.494C110.793 178.433 109.957 179.205 108.971 179.739C107.986 180.274 106.882 180.554 105.761 180.554C104.64 180.554 103.537 180.274 102.551 179.739C101.566 179.205 100.73 178.433 100.118 177.494C99.002 176.04 97.5661 174.862 95.9216 174.051C94.2771 173.24 92.468 172.818 90.6344 172.818C88.8007 172.818 86.9917 173.24 85.3472 174.051C83.7026 174.862 82.2667 176.04 81.1506 177.494C80.5407 178.433 79.7057 179.204 78.7214 179.739C77.7372 180.273 76.6351 180.553 75.5151 180.553C74.3952 180.553 73.293 180.273 72.3088 179.739C71.3246 179.204 70.4896 178.433 69.8797 177.494C68.003 175.216 65.4155 173.633 62.5319 173C60.3687 172.62 58.1427 172.838 56.0941 173.63C54.0455 174.422 52.2522 175.758 50.9077 177.494C50.2656 178.401 49.4235 179.149 48.4463 179.679C47.4692 180.209 46.3832 180.507 45.2723 180.551C44.1609 180.509 43.0741 180.212 42.0966 179.682C41.1192 179.151 40.2774 178.403 39.6368 177.494C38.5001 176.056 37.0564 174.891 35.4113 174.083C33.7661 173.274 31.9611 172.844 30.1281 172.823C28.2992 172.848 26.4991 173.282 24.8588 174.09C23.2184 174.899 21.7791 176.063 20.6453 177.498C20.0029 178.405 19.1607 179.152 18.1836 179.682C17.2065 180.213 16.1207 180.511 15.0099 180.555C13.8983 180.512 12.8116 180.213 11.8343 179.681C10.857 179.15 10.0153 178.401 9.37445 177.492C9.2379 177.355 9.10351 177.221 8.96913 177.078C11.8679 169.523 16.388 162.696 22.2111 157.076C28.0343 151.456 35.0189 147.18 42.6735 144.55H42.6648ZM108.87 222.613C102.501 234.449 92.016 243.545 79.396 248.181C66.776 252.818 52.8944 252.675 40.3727 247.779C27.8511 242.883 17.5561 233.573 11.4321 221.608C5.30805 209.643 3.77885 195.85 7.13327 182.835C9.24665 184.869 12.0786 185.986 15.0121 185.942C16.8423 185.915 18.6437 185.481 20.2857 184.673C21.9276 183.864 23.3691 182.7 24.5056 181.266C25.1463 180.357 25.988 179.608 26.9654 179.077C27.9428 178.546 29.0295 178.247 30.1411 178.205C31.2526 178.248 32.3392 178.546 33.3166 179.077C34.294 179.608 35.1357 180.357 35.7765 181.266C36.8934 182.72 38.3299 183.898 39.9749 184.709C41.6199 185.52 43.4295 185.942 45.2636 185.942C47.0977 185.942 48.9072 185.52 50.5523 184.709C52.1973 183.898 53.6338 182.72 54.7507 181.266C55.3917 180.357 56.2335 179.609 57.2108 179.078C58.1881 178.547 59.2746 178.248 60.3861 178.205C60.7921 178.203 61.1975 178.236 61.5977 178.304C63.3636 178.77 64.923 179.813 66.0281 181.266C67.1449 182.72 68.5814 183.898 70.2264 184.709C71.8715 185.52 73.681 185.942 75.5151 185.942C77.3492 185.942 79.1588 185.52 80.8038 184.709C82.4488 183.898 83.8853 182.72 85.0022 181.266C85.6121 180.327 86.4471 179.555 87.4313 179.021C88.4155 178.487 89.5177 178.207 90.6376 178.207C91.7576 178.207 92.8598 178.487 93.844 179.021C94.8282 179.555 95.6632 180.327 96.2731 181.266C97.4094 182.701 98.8508 183.864 100.493 184.673C102.135 185.482 103.936 185.915 105.767 185.942C108.703 185.985 111.539 184.867 113.654 182.83C117.114 196.22 115.412 210.42 108.886 222.613H108.87Z" fill="#023750"/>
<path d="M80.2337 99.316V99.5522C80.2337 100.284 79.9435 100.985 79.4266 101.503C78.9097 102.021 78.2085 102.313 77.4767 102.315H43.302C42.9386 102.316 42.5785 102.245 42.2425 102.106C41.9064 101.968 41.601 101.764 41.3437 101.508C41.0864 101.251 40.8823 100.946 40.743 100.611C40.6037 100.275 40.532 99.9155 40.532 99.5522V99.316C40.5326 98.5841 40.8237 97.8823 41.3414 97.3648C41.8591 96.8473 42.5612 96.5562 43.2934 96.5557H45.9962H74.7652H77.4659C77.829 96.5548 78.1888 96.6256 78.5246 96.7639C78.8603 96.9023 79.1655 97.1055 79.4226 97.3619C79.6797 97.6183 79.8837 97.9228 80.0229 98.2582C80.1621 98.5935 80.2337 98.953 80.2337 99.316Z" fill="#00ADFF"/>
<path d="M72.0753 85.627H48.7034V91.1715H72.0753V85.627Z" fill="#00ADFF"/>
<path d="M113.65 182.83C111.537 184.864 108.706 185.982 105.773 185.942C103.943 185.915 102.141 185.482 100.499 184.673C98.8572 183.864 97.4158 182.701 96.2794 181.266C95.6695 180.327 94.8345 179.555 93.8503 179.021C92.8661 178.487 91.7639 178.207 90.644 178.207C89.5241 178.207 88.4219 178.487 87.4377 179.021C86.4535 179.555 85.6184 180.327 85.0086 181.266C83.8917 182.72 82.4552 183.898 80.8102 184.709C79.1651 185.52 77.3556 185.942 75.5215 185.942C73.6874 185.942 71.8778 185.52 70.2328 184.709C68.5878 183.898 67.1513 182.72 66.0344 181.266C64.9307 179.811 63.3707 178.768 61.6041 178.304C61.2041 178.234 60.7985 178.201 60.3925 178.205C59.2808 178.247 58.194 178.546 57.2166 179.077C56.2392 179.608 55.3975 180.357 54.757 181.266C53.6402 182.72 52.2037 183.898 50.5586 184.709C48.9136 185.52 47.1041 185.942 45.27 185.942C43.4359 185.942 41.6263 185.52 39.9813 184.709C38.3362 183.898 36.8997 182.72 35.7829 181.266C35.1428 180.356 34.3012 179.607 33.3237 179.076C32.3462 178.545 31.2592 178.247 30.1475 178.205C29.0357 178.246 27.9486 178.545 26.9711 179.076C25.9935 179.607 25.152 180.356 24.512 181.266C23.3755 182.7 21.934 183.864 20.292 184.673C18.6501 185.481 16.8487 185.915 15.0184 185.942C12.085 185.986 9.25302 184.869 7.13965 182.835C5.03847 190.961 4.82614 199.46 6.51892 207.681C8.21171 215.902 11.7647 223.627 16.9056 230.263C22.0465 236.899 28.6389 242.271 36.1777 245.966C43.7164 249.662 52.0014 251.583 60.3979 251.583C68.7943 251.583 77.0794 249.662 84.6181 245.966C92.1569 242.271 98.7493 236.899 103.89 230.263C109.031 223.627 112.584 215.902 114.277 207.681C115.97 199.46 115.757 190.961 113.656 182.835L113.65 182.83ZM43.9261 216.176C41.4885 216.175 39.1058 215.451 37.0793 214.097C35.0529 212.743 33.4736 210.818 32.5413 208.567C31.6089 206.315 31.3653 203.838 31.8412 201.448C32.3172 199.058 33.4913 196.863 35.2151 195.14C36.9389 193.417 39.1351 192.244 41.526 191.768C43.9168 191.293 46.3949 191.537 48.6471 192.469C50.8992 193.402 52.8243 194.981 54.1788 197.007C55.5333 199.033 56.2565 201.415 56.2569 203.851C56.2535 207.119 54.9532 210.252 52.6414 212.563C50.3296 214.873 47.1952 216.173 43.9261 216.176ZM62.3736 241.034C60.8016 241.035 59.2647 240.569 57.9574 239.697C56.65 238.824 55.6309 237.584 55.0289 236.132C54.427 234.681 54.2692 233.083 54.5757 231.542C54.8822 230.001 55.639 228.585 56.7506 227.474C57.8621 226.363 59.2783 225.606 60.8201 225.3C62.3619 224.994 63.9599 225.151 65.412 225.753C66.8641 226.355 68.1051 227.374 68.9779 228.681C69.8507 229.987 70.3161 231.524 70.3152 233.095C70.3106 235.199 69.4724 237.216 67.9841 238.703C66.4957 240.191 64.4784 241.029 62.3736 241.034ZM82.9256 221.001C81.1111 220.998 79.3381 220.458 77.8305 219.449C76.323 218.439 75.1485 217.006 74.4554 215.33C73.7623 213.654 73.5817 211.81 73.9365 210.031C74.2913 208.252 75.1655 206.618 76.4486 205.336C77.7318 204.053 79.3664 203.18 81.146 202.826C82.9255 202.471 84.7701 202.652 86.4469 203.346C88.1236 204.039 89.5572 205.213 90.5665 206.72C91.5759 208.228 92.1157 210 92.1179 211.814C92.1173 214.251 91.1486 216.587 89.4248 218.31C87.7009 220.033 85.3632 221.001 82.9256 221.001Z" fill="#00ADFF"/>
<path d="M43.9261 191.534C41.4882 191.535 39.1053 192.258 37.0787 193.613C35.0521 194.968 33.4728 196.893 32.5406 199.144C31.6085 201.396 31.3652 203.874 31.8417 206.264C32.3182 208.654 33.4929 210.849 35.2174 212.572C36.9419 214.294 39.1387 215.467 41.5299 215.942C43.9212 216.416 46.3996 216.171 48.6516 215.238C50.9036 214.305 52.8282 212.725 54.182 210.698C55.5357 208.671 56.2578 206.289 56.2569 203.851C56.2529 200.584 54.9522 197.452 52.6404 195.143C50.3285 192.834 47.1944 191.536 43.9261 191.534ZM43.9261 210.791C42.5548 210.789 41.2149 210.381 40.0757 209.618C38.9365 208.854 38.0492 207.771 37.5259 206.504C37.0026 205.237 36.8668 203.843 37.1356 202.499C37.4045 201.154 38.0659 199.92 39.0364 198.952C40.0068 197.983 41.2427 197.324 42.5878 197.057C43.933 196.79 45.327 196.928 46.5937 197.453C47.8605 197.979 48.9431 198.867 49.7047 200.007C50.4664 201.147 50.8729 202.487 50.8729 203.858C50.87 205.698 50.1369 207.461 48.8344 208.761C47.532 210.061 45.7667 210.791 43.9261 210.791Z" fill="#023750"/>
<path d="M82.9256 202.642C81.1104 202.645 79.3368 203.185 77.8289 204.195C76.321 205.206 75.1465 206.64 74.4539 208.317C73.7612 209.994 73.5816 211.839 73.9376 213.618C74.2936 215.397 75.1693 217.031 76.454 218.313C77.7387 219.595 79.3747 220.467 81.1552 220.819C82.9357 221.172 84.7809 220.989 86.4573 220.293C88.1338 219.598 89.5663 218.421 90.5739 216.912C91.5814 215.402 92.1187 213.628 92.1178 211.814C92.115 209.379 91.145 207.046 89.4213 205.326C87.6975 203.606 85.361 202.641 82.9256 202.642ZM82.9256 215.608C82.175 215.607 81.4415 215.385 80.8176 214.967C80.1938 214.55 79.7077 213.958 79.4207 213.264C79.1338 212.571 79.059 211.808 79.2057 211.073C79.3523 210.337 79.714 209.661 80.2448 209.131C80.7757 208.6 81.452 208.239 82.1881 208.093C82.9243 207.947 83.6872 208.022 84.3806 208.309C85.074 208.596 85.6666 209.083 86.0835 209.706C86.5004 210.33 86.723 211.064 86.723 211.814C86.723 212.312 86.6247 212.806 86.4339 213.266C86.243 213.727 85.9633 214.145 85.6106 214.497C85.258 214.85 84.8393 215.129 84.3786 215.32C83.9179 215.51 83.4241 215.608 82.9256 215.608Z" fill="#023750"/>
<path d="M62.3737 225.15C60.802 225.149 59.2654 225.614 57.9582 226.486C56.6509 227.358 55.6318 228.599 55.0296 230.05C54.4275 231.501 54.2694 233.098 54.5753 234.639C54.8813 236.18 55.6375 237.596 56.7484 238.707C57.8592 239.819 59.2749 240.576 60.8162 240.883C62.3576 241.19 63.9554 241.033 65.4076 240.432C66.8598 239.832 68.1012 238.814 68.9748 237.508C69.8484 236.202 70.3149 234.666 70.3153 233.095C70.3113 230.99 69.4735 228.973 67.9852 227.484C66.4969 225.995 64.4793 225.156 62.3737 225.15ZM62.3737 235.652C61.8672 235.652 61.372 235.502 60.9507 235.221C60.5294 234.94 60.201 234.541 60.007 234.073C59.813 233.605 59.7621 233.091 59.8608 232.594C59.9595 232.098 60.2033 231.642 60.5614 231.284C60.9196 230.926 61.3759 230.682 61.8726 230.583C62.3694 230.484 62.8843 230.535 63.3521 230.729C63.8199 230.923 64.2197 231.252 64.5008 231.673C64.7819 232.094 64.9317 232.589 64.9313 233.095C64.929 233.772 64.6588 234.421 64.1797 234.9C63.7005 235.379 63.0513 235.649 62.3737 235.652Z" fill="#023750"/>
<path d="M238.206 5.72652H238.301C239 5.72694 239.672 5.45602 240.174 4.97093C240.677 4.48583 240.971 3.82451 240.996 3.12651C240.996 3.04201 240.98 2.95534 240.974 2.86434C240.985 2.80559 240.992 2.74627 240.996 2.68668C240.994 1.9739 240.71 1.29088 240.205 0.787278C239.7 0.283677 239.017 0.000571356 238.304 0L80.0515 0C74.579 0.007428 69.3323 2.18179 65.4598 6.04717C61.5873 9.91255 59.4044 15.1541 59.3889 20.6246C59.3889 20.6397 59.3889 20.6506 59.3889 20.6657V75.7144C59.4088 76.4152 59.7013 77.0806 60.2041 77.5692C60.707 78.0578 61.3807 78.3312 62.082 78.3312C62.7833 78.3312 63.457 78.0578 63.9599 77.5692C64.4628 77.0806 64.7552 76.4152 64.7751 75.7144V34.5476C66.7092 36.6817 69.0692 38.3868 71.7031 39.553C74.3369 40.7192 77.186 41.3206 80.0667 41.3185H233.958C234.506 41.4225 235.065 41.4896 235.627 41.5525V221.187H121.253C120.552 221.207 119.886 221.499 119.398 222.002C118.909 222.505 118.635 223.178 118.635 223.879C118.635 224.58 118.909 225.254 119.398 225.756C119.886 226.259 120.552 226.551 121.253 226.571H238.297C238.826 226.572 239.344 226.416 239.786 226.124C240.227 225.832 240.573 225.416 240.779 224.929C240.922 224.598 240.995 224.241 240.996 223.88V38.6296C240.994 37.9153 240.71 37.2307 240.204 36.7258C239.699 36.2209 239.014 35.937 238.299 35.9365C238.075 35.9395 237.852 35.9716 237.636 36.0318C237.424 35.9717 237.206 35.9397 236.986 35.9365H234.484C230.746 35.1406 227.441 32.973 225.222 29.8613C223.004 26.7496 222.032 22.9196 222.499 19.1271C222.966 15.3345 224.838 11.8546 227.746 9.37391C230.654 6.89323 234.386 5.59186 238.206 5.72652ZM222.5 35.0611C222.784 35.3666 223.073 35.657 223.378 35.9408H80.0515C78.0142 35.9893 75.9877 35.6301 74.0913 34.8842C72.1949 34.1384 70.4669 33.021 69.0088 31.5978C67.5507 30.1746 66.3921 28.4742 65.601 26.5969C64.8099 24.7195 64.4024 22.7029 64.4024 20.6657C64.4024 18.6286 64.8099 16.612 65.601 14.7346C66.3921 12.8572 67.5507 11.1569 69.0088 9.73369C70.4669 8.31047 72.1949 7.19308 74.0913 6.44724C75.9877 5.7014 78.0142 5.34217 80.0515 5.39068H224.128C222.027 7.20401 220.312 9.42238 219.088 11.9131C217.864 14.4039 217.155 17.1159 217.003 19.8869C216.851 22.658 217.26 25.4312 218.205 28.0406C219.15 30.6501 220.612 33.0423 222.503 35.0741L222.5 35.0611Z" fill="#023750"/>
<path d="M216.989 20.2367C217.091 17.4026 217.778 14.6202 219.006 12.0639C220.235 9.50768 221.979 7.23281 224.128 5.38202H80.0514C78.0141 5.33351 75.9876 5.69273 74.0912 6.43857C72.1948 7.18441 70.4668 8.3018 69.0087 9.72502C67.5506 11.1482 66.392 12.8486 65.6009 14.726C64.8099 16.6034 64.4023 18.6199 64.4023 20.6571C64.4023 22.6942 64.8099 24.7108 65.6009 26.5882C66.392 28.4656 67.5506 30.1659 69.0087 31.5891C70.4668 33.0123 72.1948 34.1297 74.0912 34.8756C75.9876 35.6214 78.0141 35.9806 80.0514 35.9321H223.378C223.075 35.6483 222.787 35.358 222.511 35.0525C220.656 33.0706 219.213 30.7407 218.265 28.1976C217.317 25.6545 216.883 22.9486 216.989 20.2367ZM205.538 23.6774H80.0514C79.6913 23.6876 79.3329 23.6256 78.9972 23.4949C78.6615 23.3642 78.3555 23.1675 78.0972 22.9165C77.8388 22.6655 77.6335 22.3653 77.4933 22.0336C77.3531 21.7019 77.2808 21.3454 77.2808 20.9853C77.2808 20.6252 77.3531 20.2688 77.4933 19.9371C77.6335 19.6054 77.8388 19.3051 78.0972 19.0541C78.3555 18.8031 78.6615 18.6065 78.9972 18.4758C79.3329 18.3451 79.6913 18.283 80.0514 18.2932H205.549C205.909 18.283 206.267 18.3451 206.603 18.4758C206.938 18.6065 207.245 18.8031 207.503 19.0541C207.761 19.3051 207.966 19.6054 208.107 19.9371C208.247 20.2688 208.319 20.6252 208.319 20.9853C208.319 21.3454 208.247 21.7019 208.107 22.0336C207.966 22.3653 207.761 22.6655 207.503 22.9165C207.245 23.1675 206.938 23.3642 206.603 23.4949C206.267 23.6256 205.909 23.6876 205.549 23.6774H205.538Z" fill="#00ADFF"/>
<path d="M208.234 20.9842C208.235 21.3383 208.166 21.6891 208.031 22.0164C207.895 22.3436 207.697 22.641 207.446 22.8913C207.196 23.1415 206.898 23.3398 206.571 23.4747C206.243 23.6097 205.892 23.6785 205.538 23.6774H80.0516C79.6915 23.6876 79.333 23.6255 78.9974 23.4948C78.6617 23.3641 78.3556 23.1675 78.0973 22.9165C77.839 22.6655 77.6337 22.3652 77.4935 22.0335C77.3532 21.7018 77.281 21.3454 77.281 20.9853C77.281 20.6252 77.3532 20.2687 77.4935 19.937C77.6337 19.6053 77.839 19.3051 78.0973 19.0541C78.3556 18.8031 78.6617 18.6065 78.9974 18.4758C79.333 18.3451 79.6915 18.283 80.0516 18.2932H205.549C206.262 18.2949 206.945 18.5792 207.448 19.0837C207.952 19.5881 208.234 20.2716 208.234 20.9842Z" fill="#023750"/>
<path d="M205.62 102.817C205.536 90.3849 200.536 78.4904 191.712 69.729C182.887 60.9676 170.955 56.0505 158.518 56.0505C146.08 56.0505 134.148 60.9676 125.323 69.729C116.499 78.4904 111.499 90.3849 111.415 102.817C111.405 103.177 111.467 103.536 111.598 103.871C111.728 104.207 111.925 104.513 112.176 104.771C112.427 105.029 112.728 105.234 113.059 105.374C113.391 105.515 113.748 105.587 114.108 105.587C114.468 105.587 114.825 105.515 115.157 105.374C115.488 105.234 115.789 105.029 116.04 104.771C116.291 104.513 116.488 104.207 116.618 103.871C116.749 103.536 116.811 103.177 116.801 102.817C116.801 94.5693 119.247 86.5065 123.831 79.6483C128.414 72.7902 134.93 67.4448 142.552 64.2881C150.175 61.1315 158.563 60.3053 166.656 61.9142C174.748 63.523 182.182 67.4946 188.017 73.3266C193.851 79.1586 197.824 86.5892 199.434 94.6787C201.044 102.768 200.218 111.153 197.061 118.773C193.903 126.393 188.556 132.907 181.696 137.489C174.835 142.071 166.77 144.517 158.519 144.517C158.165 144.517 157.815 144.586 157.488 144.72C157.162 144.855 156.865 145.053 156.615 145.302C156.364 145.552 156.166 145.848 156.03 146.174C155.895 146.501 155.825 146.85 155.824 147.204V178.9C155.814 179.26 155.876 179.618 156.007 179.953C156.138 180.288 156.334 180.594 156.585 180.852C156.836 181.11 157.136 181.315 157.468 181.455C157.799 181.595 158.155 181.667 158.515 181.667C158.875 181.667 159.232 181.595 159.563 181.455C159.895 181.315 160.195 181.11 160.446 180.852C160.697 180.594 160.893 180.288 161.024 179.953C161.154 179.618 161.216 179.26 161.206 178.9V149.825C173.209 149.125 184.49 143.869 192.745 135.132C201 126.394 205.606 114.835 205.62 102.817Z" fill="#023750"/>
<path d="M149.339 197.601C149.339 199.416 149.877 201.19 150.885 202.699C151.894 204.208 153.327 205.385 155.004 206.08C156.682 206.774 158.527 206.956 160.308 206.603C162.089 206.249 163.725 205.375 165.009 204.092C166.293 202.809 167.167 201.174 167.521 199.394C167.876 197.614 167.694 195.769 166.999 194.092C166.305 192.415 165.128 190.982 163.619 189.974C162.109 188.965 160.334 188.427 158.519 188.427C156.085 188.429 153.752 189.396 152.031 191.116C150.31 192.836 149.342 195.168 149.339 197.601ZM162.31 197.601C162.31 198.351 162.089 199.084 161.672 199.709C161.256 200.333 160.664 200.819 159.971 201.107C159.277 201.395 158.514 201.47 157.778 201.324C157.042 201.178 156.366 200.817 155.835 200.287C155.304 199.757 154.943 199.081 154.796 198.345C154.65 197.609 154.725 196.847 155.012 196.154C155.3 195.46 155.786 194.868 156.41 194.452C157.034 194.035 157.768 193.813 158.519 193.813C159.523 193.816 160.485 194.216 161.195 194.926C161.906 195.635 162.306 196.597 162.31 197.601Z" fill="#023750"/>
<path d="M235.612 41.559H224.128V221.196H235.612V41.559Z" fill="#00ADFF"/>
</g>
<defs>
<clipPath id="clip0_2002_285">
<rect width="241" height="257" fill="white"/>
</clipPath>
</defs>
</svg>
