<svg width="19" height="23" viewBox="0 0 19 23" fill="none" xmlns="http://www.w3.org/2000/svg">
<path d="M19 8.13303C19 11.8451 15.0827 14.8416 10.2199 14.8416C5.35718 14.8416 1.43994 11.8451 1.43994 8.13303C1.43994 6.70187 2.02528 5.36015 3.06087 4.24205C2.47554 3.07924 2.61061 0.708885 3.24097 0.127476C3.78128 -0.364486 5.7624 1.33501 6.52784 2.00587C7.65348 1.60335 8.86918 1.37974 10.2199 1.37974C11.3906 1.37974 12.5163 1.55863 13.5518 1.8717C14.4073 1.1114 16.2084 -0.364488 16.7487 0.0827494C17.289 0.619435 17.5141 2.632 17.0639 3.88427C18.2795 5.09181 19 6.52297 19 8.13303ZM12.6964 14.8416C12.6964 14.8416 13.6419 14.931 13.5969 16.6305V20.6557C13.5969 20.6557 13.9571 21.3713 14.4974 21.5502C14.4974 21.5502 14.9927 21.9527 14.0471 21.9974C14.0471 21.9974 13.1016 22.0421 12.6964 21.5502C12.2911 21.0582 12.2461 20.6557 12.2461 20.2084C12.2461 19.7612 12.2461 17.525 12.2461 17.525C12.2461 17.525 11.9309 16.6305 11.7958 17.525V20.2084V21.1029C11.7958 21.1029 11.9309 22.0868 12.6964 22.4446C12.6964 22.4446 11.0304 22.8471 10.4451 20.6557V17.525C10.265 16.9883 9.99482 17.525 9.99482 17.525V20.6557C9.40949 22.8471 7.74354 22.4446 7.74354 22.4446C8.50897 22.0868 8.64405 21.1029 8.64405 21.1029V20.2084V17.525C8.50897 16.6305 8.19379 17.525 8.19379 17.525C8.19379 17.525 8.19379 19.7612 8.19379 20.2084C8.19379 20.6557 8.14877 21.0582 7.74354 21.5502C7.3383 22.0421 6.39277 21.9974 6.39277 21.9974C5.44723 21.9527 5.94251 21.5502 5.94251 21.5502C6.48282 21.3713 6.84302 20.6557 6.84302 20.6557V18.8667C6.70795 17.9723 4.86189 18.2406 4.14148 17.9723C3.42107 17.7039 2.20538 16.0491 1.8902 14.8416C1.57502 13.6341 0.539429 14.3944 0.539429 14.3944C1.30487 12.9632 2.34046 13.9471 2.34046 13.9471C4.59174 17.4803 6.84302 16.1833 6.84302 16.1833C6.84302 16.1833 6.84302 16.2728 6.84302 16.4517C6.88805 14.931 7.74354 14.8416 7.74354 14.8416H9.99482H10.2199H10.4451H12.6964Z" fill="white"/>
</svg>
