<svg width="239" height="218" viewBox="0 0 239 218" fill="none" xmlns="http://www.w3.org/2000/svg">
<g clip-path="url(#clip0_2002_200)">
<path d="M238.996 41.4051C238.996 41.2629 238.996 41.1207 238.984 40.9785C238.984 40.8891 238.968 40.8038 238.964 40.7184C238.951 40.5945 238.943 40.4746 238.933 40.3609C238.923 40.2471 238.909 40.1862 238.897 40.1029C238.882 39.9789 238.866 39.8591 238.848 39.7372C238.836 39.662 238.822 39.5808 238.807 39.5056C238.783 39.3796 238.761 39.2496 238.734 39.1216C238.718 39.0566 238.702 38.9916 238.688 38.9185C238.655 38.7824 238.621 38.6462 238.58 38.5122C238.566 38.4573 238.55 38.4065 238.536 38.3517C238.491 38.1993 238.444 38.049 238.394 37.8966C238.394 37.86 238.367 37.8255 238.359 37.791C238.299 37.6203 238.24 37.4517 238.173 37.281C238.168 37.2667 238.161 37.2531 238.153 37.2404C237.518 35.6588 236.564 34.2258 235.35 33.031C235.196 32.8705 235.026 32.7121 234.866 32.5719C232.942 30.8594 230.588 29.7059 228.057 29.2361C228.038 29.2379 228.018 29.2379 227.999 29.2361C227.822 29.1995 227.642 29.1731 227.463 29.1447L227.307 29.1223C227.161 29.102 227.011 29.0837 226.863 29.0675C226.778 29.0573 226.697 29.0471 226.614 29.0431H226.602V27.3122C226.604 26.2094 226.458 25.1113 226.168 24.0475C226.064 23.6635 225.965 23.3405 225.851 23.0419C225.78 22.8387 225.699 22.6356 225.616 22.4324L225.58 22.3471C225.515 22.2028 225.452 22.0566 225.377 21.9164C225.366 21.8969 225.358 21.8765 225.351 21.8554C225.162 21.4979 224.992 21.1789 224.821 20.8803C224.797 20.8458 224.771 20.8072 224.746 20.7645C224.559 20.4539 224.356 20.1528 224.138 19.8625C224.122 19.8331 224.102 19.8058 224.079 19.7812C223.734 19.3302 223.36 18.902 222.96 18.4993C221.811 17.3409 220.444 16.4224 218.938 15.7968C217.432 15.1712 215.817 14.851 214.187 14.8547H142.272C138.979 14.8601 135.822 16.1733 133.494 18.5065C131.166 20.8397 129.856 24.0026 129.851 27.302V154.335C129.851 161.287 136.027 166.949 143.614 166.949H143.63H148.012C148.679 166.949 149.32 166.683 149.792 166.21C150.264 165.737 150.53 165.095 150.53 164.426C150.53 163.757 150.264 163.115 149.792 162.642C149.32 162.169 148.679 161.903 148.012 161.903H143.598C141.442 162.042 139.318 161.324 137.687 159.906C136.055 158.488 135.046 156.483 134.879 154.325V148.027C137.017 149.615 139.609 150.469 142.269 150.465H214.181C216.112 150.461 218.015 150.008 219.741 149.14C221.467 148.273 222.968 147.016 224.126 145.467C224.329 145.187 224.531 144.89 224.771 144.519C224.807 144.467 224.839 144.414 224.868 144.358C225.038 144.066 225.202 143.76 225.359 143.44C225.359 143.42 225.381 143.403 225.391 143.385C225.567 142.997 225.716 142.648 225.833 142.325C225.951 142.002 226.056 141.687 226.168 141.278C226.45 140.215 226.594 139.119 226.595 138.018V34.1159C227.427 34.2314 228.24 34.454 229.014 34.7782C229.138 34.829 229.274 34.8797 229.4 34.9387C229.466 34.9691 229.527 35.0077 229.588 35.0402C229.781 35.1357 229.963 35.2312 230.146 35.3389C230.18 35.3572 230.207 35.3836 230.241 35.4018C230.444 35.5298 230.647 35.6619 230.849 35.8082C230.88 35.8302 230.909 35.854 230.936 35.8793C231.123 36.0194 231.305 36.1657 231.482 36.3242C231.606 36.4278 231.723 36.5456 231.839 36.6614C231.954 36.7772 232.066 36.9032 232.173 37.023C232.234 37.088 232.287 37.1551 232.344 37.2262C232.443 37.3481 232.534 37.474 232.625 37.6C232.68 37.6711 232.731 37.7422 232.782 37.8174L233.023 38.2074C233.067 38.2806 233.11 38.3639 233.153 38.4431C233.224 38.5751 233.288 38.7052 233.355 38.8372L233.467 39.1033C233.516 39.2374 233.572 39.3674 233.611 39.5097C233.647 39.6086 233.678 39.7097 233.702 39.8124C233.739 39.9383 233.775 40.0622 233.803 40.1902C233.832 40.3182 233.854 40.4462 233.874 40.5722C233.895 40.6981 233.911 40.7855 233.925 40.8911C233.945 41.1146 233.96 41.3299 233.96 41.5554C233.96 41.5778 233.96 41.592 233.96 41.6123V154.315C233.793 156.473 232.784 158.478 231.152 159.896C229.52 161.314 227.397 162.031 225.241 161.891H222.058C221.39 161.891 220.749 162.156 220.277 162.63C219.805 163.103 219.54 163.744 219.54 164.414C219.54 165.083 219.805 165.725 220.277 166.198C220.749 166.671 221.39 166.937 222.058 166.937H225.227H225.241C228.734 167.08 232.141 165.832 234.72 163.467C237.298 161.101 238.837 157.81 239.002 154.311V41.5961C238.998 41.531 238.996 41.466 238.996 41.4051ZM221.559 138.018C221.562 138.672 221.477 139.324 221.308 139.956C221.243 140.193 221.184 140.38 221.117 140.565C221.05 140.75 220.951 140.984 220.835 141.248C220.724 141.463 220.608 141.677 220.493 141.87C220.482 141.884 220.468 141.908 220.458 141.92C220.322 142.138 220.205 142.312 220.095 142.459C219.412 143.384 218.52 144.135 217.493 144.65C216.466 145.165 215.332 145.43 214.183 145.423H142.278C140.319 145.422 138.441 144.642 137.056 143.256C135.67 141.869 134.89 139.988 134.887 138.026V27.3061C134.889 25.3444 135.668 23.4638 137.052 22.0767C138.437 20.6896 140.314 19.9093 142.272 19.9072H214.189C215.157 19.9057 216.116 20.0961 217.01 20.4674C217.904 20.8387 218.716 21.3837 219.4 22.0708C219.653 22.3251 219.889 22.5966 220.105 22.8834L220.136 22.922C220.257 23.0886 220.383 23.2755 220.503 23.4787C220.515 23.4787 220.519 23.499 220.529 23.5132C220.641 23.7062 220.748 23.9073 220.845 24.1084C220.886 24.1938 220.926 24.2791 220.963 24.3644L221.001 24.4558C221.042 24.5473 221.072 24.6346 221.109 24.726C221.114 24.7499 221.122 24.7731 221.133 24.7951C221.19 24.9515 221.249 25.1384 221.314 25.3741C221.484 26.0045 221.568 26.6551 221.565 27.3081V138.028L221.559 138.018Z" fill="#023750"/>
<path d="M210 93.9553H146.46C145.792 93.9553 145.152 94.2212 144.68 94.6943C144.207 95.1675 143.942 95.8093 143.942 96.4785C143.942 97.1477 144.207 97.7895 144.68 98.2627C145.152 98.7359 145.792 99.0017 146.46 99.0017H210C210.668 99.0017 211.308 98.7359 211.781 98.2627C212.253 97.7895 212.518 97.1477 212.518 96.4785C212.518 95.8093 212.253 95.1675 211.781 94.6943C211.308 94.2212 210.668 93.9553 210 93.9553Z" fill="#023750"/>
<path d="M210 103.368H146.46C145.792 103.368 145.152 103.633 144.68 104.107C144.207 104.58 143.942 105.222 143.942 105.891C143.942 106.56 144.207 107.202 144.68 107.675C145.152 108.148 145.792 108.414 146.46 108.414H210C210.668 108.414 211.308 108.148 211.781 107.675C212.253 107.202 212.518 106.56 212.518 105.891C212.518 105.222 212.253 104.58 211.781 104.107C211.308 103.633 210.668 103.368 210 103.368Z" fill="#023750"/>
<path d="M210 112.78H146.46C145.792 112.78 145.152 113.045 144.68 113.519C144.207 113.992 143.942 114.634 143.942 115.303C143.942 115.972 144.207 116.614 144.68 117.087C145.152 117.56 145.792 117.826 146.46 117.826H210C210.668 117.826 211.308 117.56 211.781 117.087C212.253 116.614 212.518 115.972 212.518 115.303C212.518 114.634 212.253 113.992 211.781 113.519C211.308 113.045 210.668 112.78 210 112.78Z" fill="#023750"/>
<path d="M210 122.188H146.46C145.804 122.207 145.181 122.481 144.723 122.953C144.266 123.424 144.01 124.056 144.01 124.714C144.01 125.372 144.266 126.004 144.723 126.476C145.181 126.947 145.804 127.222 146.46 127.24H210C210.656 127.222 211.279 126.947 211.737 126.476C212.195 126.004 212.451 125.372 212.451 124.714C212.451 124.056 212.195 123.424 211.737 122.953C211.279 122.481 210.656 122.207 210 122.188Z" fill="#023750"/>
<path d="M210 131.6H146.46C146.124 131.59 145.789 131.649 145.475 131.771C145.161 131.893 144.875 132.078 144.634 132.313C144.392 132.548 144.2 132.829 144.069 133.14C143.938 133.451 143.871 133.785 143.871 134.122C143.871 134.46 143.938 134.794 144.069 135.104C144.2 135.415 144.392 135.696 144.634 135.931C144.875 136.167 145.161 136.351 145.475 136.473C145.789 136.596 146.124 136.654 146.46 136.644H210C210.336 136.654 210.672 136.596 210.985 136.473C211.299 136.351 211.585 136.167 211.827 135.931C212.068 135.696 212.26 135.415 212.391 135.104C212.522 134.794 212.59 134.46 212.59 134.122C212.59 133.785 212.522 133.451 212.391 133.14C212.26 132.829 212.068 132.548 211.827 132.313C211.585 132.078 211.299 131.893 210.985 131.771C210.672 131.649 210.336 131.59 210 131.6Z" fill="#023750"/>
<path d="M210.002 28.6652H146.462C146.132 28.665 145.804 28.73 145.498 28.8567C145.193 28.9835 144.915 29.1693 144.681 29.4037C144.447 29.638 144.262 29.9163 144.135 30.2225C144.009 30.5288 143.944 30.857 143.944 31.1884V87.0663C143.944 87.3979 144.008 87.7264 144.135 88.0328C144.261 88.3393 144.447 88.6178 144.68 88.8524C144.914 89.087 145.192 89.273 145.498 89.3998C145.804 89.5267 146.131 89.5918 146.462 89.5915H210.002C210.67 89.591 211.311 89.3247 211.783 88.8512C212.255 88.3777 212.52 87.7357 212.52 87.0663V31.1986C212.521 30.8664 212.457 30.5374 212.331 30.2302C212.205 29.923 212.02 29.6438 211.786 29.4084C211.552 29.1731 211.274 28.9863 210.968 28.8588C210.662 28.7313 210.333 28.6655 210.002 28.6652ZM162.851 84.5431L178.222 57.8526L183.175 66.446L172.748 84.5431H162.851ZM207.486 84.5431H178.561L199.39 48.4038L207.486 62.45V84.5431ZM207.486 52.3552L201.571 42.0958C201.35 41.7124 201.032 41.394 200.649 41.1727C200.266 40.9514 199.832 40.8349 199.39 40.8349C198.948 40.8349 198.513 40.9514 198.13 41.1727C197.747 41.394 197.429 41.7124 197.208 42.0958L186.081 61.3956L180.404 51.5385C180.183 51.155 179.865 50.8365 179.483 50.615C179.1 50.3936 178.666 50.277 178.224 50.277C177.782 50.277 177.348 50.3936 176.966 50.615C176.583 50.8365 176.265 51.155 176.044 51.5385L157.036 84.5431H148.981V33.7116H207.486V52.3552Z" fill="#023750"/>
<path d="M148.981 33.7116V84.5431H157.036L176.042 51.5426C176.264 51.1591 176.581 50.8407 176.964 50.6193C177.347 50.3979 177.781 50.2813 178.223 50.2813C178.665 50.2813 179.099 50.3979 179.482 50.6193C179.865 50.8407 180.183 51.1591 180.404 51.5426L186.081 61.3997L197.208 42.0999C197.429 41.7165 197.748 41.3981 198.13 41.1768C198.513 40.9554 198.948 40.8389 199.39 40.8389C199.832 40.8389 200.266 40.9554 200.649 41.1768C201.032 41.3981 201.35 41.7165 201.571 42.0999L207.486 52.3592V33.7116H148.981ZM161.629 54.8885C159.913 54.8893 158.236 54.3805 156.81 53.4263C155.383 52.4721 154.271 51.1155 153.614 49.528C152.957 47.9405 152.785 46.1934 153.119 44.5077C153.453 42.822 154.278 41.2734 155.49 40.0577C156.703 38.842 158.248 38.0139 159.93 37.6781C161.612 37.3423 163.356 37.5138 164.941 38.1711C166.526 38.8283 167.88 39.9416 168.834 41.3703C169.787 42.7991 170.296 44.4789 170.296 46.1975C170.294 48.5008 169.381 50.7092 167.756 52.3385C166.131 53.9677 163.927 54.8848 161.629 54.8885Z" fill="#00ADFF"/>
<path d="M161.629 37.5126C159.913 37.5118 158.236 38.0208 156.809 38.9753C155.383 39.9297 154.27 41.2867 153.614 42.8746C152.957 44.4625 152.785 46.2099 153.119 47.8957C153.454 49.5816 154.28 51.1302 155.493 52.3456C156.706 53.561 158.251 54.3887 159.934 54.7238C161.616 55.0589 163.36 54.8865 164.945 54.2284C166.53 53.5702 167.884 52.4559 168.837 51.0264C169.789 49.5969 170.297 47.9164 170.296 46.1975C170.293 43.8953 169.378 41.6885 167.753 40.0605C166.129 38.4326 163.926 37.5164 161.629 37.5126ZM161.629 49.8421C160.909 49.8429 160.206 49.63 159.608 49.2304C159.01 48.8307 158.543 48.2622 158.267 47.5968C157.991 46.9314 157.919 46.199 158.058 45.4922C158.198 44.7854 158.544 44.1359 159.052 43.626C159.56 43.1161 160.207 42.7686 160.913 42.6275C161.618 42.4864 162.349 42.558 163.013 42.8333C163.678 43.1086 164.246 43.5751 164.646 44.174C165.046 44.7728 165.26 45.477 165.26 46.1975C165.257 47.1621 164.873 48.0863 164.193 48.769C163.513 49.4516 162.591 49.8373 161.629 49.8421Z" fill="#023750"/>
<path d="M122.592 16.3662C122.639 12.079 120.987 7.94819 117.998 4.87998C115.009 1.81178 110.928 0.0567699 106.649 0L25.2856 0C21.0079 0.0578352 16.9277 1.81338 13.9401 4.88153C10.9525 7.94968 9.30139 12.0799 9.34903 16.3662V155.298C9.34903 155.369 9.36525 155.428 9.3693 155.501C9.37336 155.574 9.34903 155.631 9.34903 155.694V165.419C9.30247 169.708 10.9551 173.839 13.9445 176.909C16.9339 179.978 21.016 181.734 25.2957 181.792H106.649C110.929 181.733 115.011 179.977 118 176.908C120.989 173.839 122.642 169.707 122.596 165.419V155.692C122.596 155.629 122.582 155.562 122.578 155.489C122.574 155.416 122.596 155.361 122.596 155.286V27.5011L122.592 16.3662ZM117.556 165.417C117.603 168.367 116.482 171.215 114.438 173.338C112.393 175.461 109.593 176.686 106.649 176.745H25.2957C22.3532 176.685 19.5543 175.459 17.5115 173.336C15.4687 171.213 14.3483 168.366 14.3956 165.417V157.823H117.556V165.417ZM14.3956 152.773V30.0243H117.551V152.777L14.3956 152.773ZM117.556 24.9759H14.3956V16.3662C14.3473 13.4183 15.4676 10.5714 17.5109 8.44981C19.5542 6.32822 22.3537 5.10502 25.2957 5.04841H106.649C109.593 5.10343 112.394 6.3258 114.44 8.44744C116.485 10.5691 117.607 13.4168 117.56 16.3662L117.556 24.9759Z" fill="#023750"/>
<path d="M14.3956 157.823V165.417C14.3483 168.366 15.4687 171.213 17.5115 173.336C19.5543 175.459 22.3532 176.685 25.2957 176.745H106.649C109.594 176.688 112.396 175.463 114.441 173.339C116.486 171.215 117.607 168.366 117.56 165.415V157.823H14.3956ZM78.1216 169.509H53.8295C53.1622 169.509 52.5222 169.243 52.0503 168.77C51.5784 168.298 51.3133 167.656 51.3133 166.988C51.3133 166.319 51.5784 165.678 52.0503 165.205C52.5222 164.732 53.1622 164.467 53.8295 164.467H78.1115C78.7788 164.467 79.4188 164.732 79.8907 165.205C80.3626 165.678 80.6277 166.319 80.6277 166.988C80.6277 167.656 80.3626 168.298 79.8907 168.77C79.4188 169.243 78.7788 169.509 78.1115 169.509H78.1216Z" fill="#00ADFF"/>
<path d="M106.649 5.0484H25.2857C22.3454 5.10767 19.5485 6.33202 17.5074 8.45333C15.4662 10.5746 14.3473 13.42 14.3957 16.3662V24.9759H117.556V16.3662C117.603 13.4175 116.481 10.5704 114.437 8.44885C112.393 6.32731 109.592 5.10449 106.649 5.0484ZM78.1156 18.2535H53.8296C53.1617 18.2535 52.5212 17.9877 52.0489 17.5145C51.5767 17.0413 51.3113 16.3995 51.3113 15.7303C51.3113 15.0611 51.5767 14.4193 52.0489 13.9461C52.5212 13.473 53.1617 13.2071 53.8296 13.2071H78.1116C78.7794 13.2071 79.42 13.473 79.8922 13.9461C80.3645 14.4193 80.6298 15.0611 80.6298 15.7303C80.6298 16.3995 80.3645 17.0413 79.8922 17.5145C79.42 17.9877 78.7794 18.2535 78.1116 18.2535H78.1156Z" fill="#00ADFF"/>
<path d="M80.6318 166.994C80.6313 167.663 80.3655 168.305 79.8929 168.778C79.4203 169.251 78.7796 169.517 78.1115 169.517H53.8295C53.1622 169.517 52.5222 169.251 52.0503 168.779C51.5785 168.306 51.3134 167.664 51.3134 166.996C51.3134 166.327 51.5785 165.686 52.0503 165.213C52.5222 164.74 53.1622 164.475 53.8295 164.475H78.1115C78.4422 164.474 78.7698 164.538 79.0755 164.665C79.3813 164.791 79.6591 164.976 79.8933 165.21C80.1274 165.444 80.3131 165.722 80.4398 166.028C80.5666 166.334 80.6318 166.662 80.6318 166.994Z" fill="#023750"/>
<path d="M80.6319 15.7263C80.6313 16.3956 80.3656 17.0374 79.893 17.5105C79.4204 17.9837 78.7797 18.2494 78.1116 18.2494H53.8296C53.1618 18.2494 52.5212 17.9836 52.049 17.5104C51.5767 17.0372 51.3114 16.3954 51.3114 15.7263C51.3114 15.0571 51.5767 14.4153 52.049 13.9421C52.5212 13.4689 53.1618 13.2031 53.8296 13.2031H78.1116C78.7797 13.2031 79.4204 13.4688 79.893 13.942C80.3656 14.4151 80.6313 15.0569 80.6319 15.7263Z" fill="#023750"/>
<path d="M106.07 102.699H25.8716C25.2159 102.718 24.5932 102.992 24.1359 103.463C23.6787 103.935 23.4229 104.566 23.4229 105.223C23.4229 105.881 23.6787 106.512 24.1359 106.983C24.5932 107.455 25.2159 107.729 25.8716 107.748H106.07C106.725 107.729 107.348 107.455 107.805 106.983C108.262 106.512 108.518 105.881 108.518 105.223C108.518 104.566 108.262 103.935 107.805 103.463C107.348 102.992 106.725 102.718 106.07 102.699Z" fill="#023750"/>
<path d="M106.07 112.113H25.8717C25.5351 112.104 25.2 112.162 24.8863 112.284C24.5725 112.407 24.2864 112.591 24.045 112.826C23.8036 113.061 23.6116 113.343 23.4806 113.653C23.3495 113.964 23.282 114.298 23.282 114.635C23.282 114.973 23.3495 115.307 23.4806 115.618C23.6116 115.928 23.8036 116.21 24.045 116.445C24.2864 116.68 24.5725 116.864 24.8863 116.987C25.2 117.109 25.5351 117.167 25.8717 117.158H106.07C106.406 117.167 106.741 117.109 107.055 116.987C107.369 116.864 107.655 116.68 107.896 116.445C108.138 116.21 108.33 115.928 108.461 115.618C108.592 115.307 108.659 114.973 108.659 114.635C108.659 114.298 108.592 113.964 108.461 113.653C108.33 113.343 108.138 113.061 107.896 112.826C107.655 112.591 107.369 112.407 107.055 112.284C106.741 112.162 106.406 112.104 106.07 112.113Z" fill="#023750"/>
<path d="M106.07 121.521H25.8716C25.2037 121.521 24.5632 121.787 24.091 122.261C23.6187 122.734 23.3534 123.375 23.3534 124.045C23.3534 124.714 23.6187 125.356 24.091 125.829C24.5632 126.302 25.2037 126.568 25.8716 126.568H106.07C106.737 126.568 107.378 126.302 107.85 125.829C108.322 125.356 108.588 124.714 108.588 124.045C108.588 123.375 108.322 122.734 107.85 122.261C107.378 121.787 106.737 121.521 106.07 121.521Z" fill="#023750"/>
<path d="M106.07 130.934H25.8716C25.2159 130.952 24.5932 131.226 24.1359 131.698C23.6787 132.169 23.4229 132.801 23.4229 133.458C23.4229 134.115 23.6787 134.747 24.1359 135.218C24.5932 135.689 25.2159 135.963 25.8716 135.982H106.07C106.725 135.963 107.348 135.689 107.805 135.218C108.262 134.747 108.518 134.115 108.518 133.458C108.518 132.801 108.262 132.169 107.805 131.698C107.348 131.226 106.725 130.952 106.07 130.934Z" fill="#023750"/>
<path d="M106.07 140.344H25.8717C25.5351 140.334 25.2 140.392 24.8863 140.515C24.5725 140.637 24.2864 140.822 24.045 141.057C23.8036 141.292 23.6116 141.573 23.4806 141.884C23.3495 142.195 23.282 142.529 23.282 142.866C23.282 143.203 23.3495 143.537 23.4806 143.848C23.6116 144.159 23.8036 144.44 24.045 144.675C24.2864 144.91 24.5725 145.095 24.8863 145.217C25.2 145.34 25.5351 145.398 25.8717 145.388H106.07C106.406 145.398 106.741 145.34 107.055 145.217C107.369 145.095 107.655 144.91 107.896 144.675C108.138 144.44 108.33 144.159 108.461 143.848C108.592 143.537 108.659 143.203 108.659 142.866C108.659 142.529 108.592 142.195 108.461 141.884C108.33 141.573 108.138 141.292 107.896 141.057C107.655 140.822 107.369 140.637 107.055 140.515C106.741 140.392 106.406 140.334 106.07 140.344Z" fill="#023750"/>
<path d="M106.067 36.3181H25.8695C25.202 36.3181 24.5618 36.5837 24.0896 37.0564C23.6174 37.5292 23.3519 38.1704 23.3513 38.8393V94.7172C23.3519 95.3862 23.6173 96.0277 24.0895 96.5007C24.5616 96.9738 25.2018 97.2398 25.8695 97.2404H106.067C106.735 97.2398 107.375 96.9738 107.847 96.5007C108.32 96.0277 108.585 95.3862 108.586 94.7172V38.8494C108.587 38.5174 108.522 38.1884 108.396 37.8814C108.27 37.5743 108.085 37.2952 107.851 37.06C107.617 36.8248 107.339 36.6383 107.033 36.511C106.727 36.3836 106.399 36.3181 106.067 36.3181ZM103.549 92.1859H28.3857V41.3625H103.549V92.1859Z" fill="#023750"/>
<path d="M28.3857 41.3624V92.1939H103.549V41.3624H28.3857ZM76.6922 70.948L57.7691 81.894C57.3862 82.1155 56.9519 82.232 56.5098 82.232C56.0676 82.232 55.6333 82.1153 55.2505 81.8938C54.8676 81.6722 54.5498 81.3536 54.3288 80.9699C54.1078 80.5862 53.9916 80.151 53.9917 79.708V57.82C53.9919 57.3772 54.1085 56.9423 54.3296 56.5589C54.5507 56.1755 54.8686 55.8571 55.2514 55.6358C55.6342 55.4145 56.0683 55.298 56.5103 55.2981C56.9522 55.2981 57.3863 55.4147 57.7691 55.6361L76.6922 66.5781C77.0755 66.7991 77.3938 67.1175 77.6151 67.5011C77.8365 67.8847 77.953 68.3199 77.953 68.763C77.953 69.2061 77.8365 69.6414 77.6151 70.0249C77.3938 70.4085 77.0755 70.7269 76.6922 70.948Z" fill="#00ADFF"/>
<path d="M76.6923 66.5781L57.7692 55.6361C57.3864 55.4147 56.9523 55.2981 56.5104 55.2981C56.0684 55.298 55.6342 55.4145 55.2515 55.6358C54.8687 55.8571 54.5508 56.1755 54.3297 56.5589C54.1085 56.9423 53.992 57.3773 53.9918 57.8201V79.708C53.9923 80.1508 54.1089 80.5856 54.33 80.9689C54.5512 81.3523 54.869 81.6706 55.2516 81.892C55.6342 82.1135 56.0682 82.2302 56.5101 82.2305C56.952 82.2309 57.3862 82.1148 57.7692 81.894L76.6923 70.948C77.0756 70.7269 77.3939 70.4085 77.6152 70.025C77.8366 69.6414 77.9531 69.2061 77.9531 68.763C77.9531 68.3199 77.8366 67.8847 77.6152 67.5011C77.3939 67.1175 77.0756 66.7992 76.6923 66.5781ZM59.0283 75.3382V62.192L70.3968 68.764L59.0283 75.3382Z" fill="#023750"/>
<path d="M203.601 154.124C199.839 154.13 196.232 155.63 193.572 158.296C190.911 160.961 189.414 164.575 189.408 168.345C189.408 168.676 189.473 169.004 189.6 169.31C189.726 169.616 189.912 169.895 190.146 170.129C190.379 170.363 190.657 170.549 190.963 170.676C191.268 170.803 191.596 170.868 191.926 170.868C192.257 170.868 192.584 170.803 192.89 170.676C193.195 170.549 193.473 170.363 193.707 170.129C193.941 169.895 194.126 169.616 194.253 169.31C194.379 169.004 194.444 168.676 194.444 168.345C194.444 165.91 195.41 163.575 197.128 161.853C198.846 160.131 201.177 159.164 203.607 159.164C206.037 159.164 208.368 160.131 210.086 161.853C211.804 163.575 212.77 165.91 212.77 168.345V189.138C210.868 187.526 208.576 186.445 206.125 186.002C203.674 185.559 201.149 185.77 198.805 186.614C196.461 187.458 194.381 188.906 192.772 190.811C191.163 192.716 190.082 195.011 189.639 197.467H181.123C180.681 195.011 179.601 192.714 177.991 190.808C176.382 188.903 174.301 187.455 171.956 186.611C169.611 185.767 167.086 185.556 164.635 185.999C162.183 186.443 159.891 187.525 157.989 189.138V168.349C157.971 167.132 158.195 165.923 158.647 164.794C159.099 163.664 159.771 162.636 160.624 161.769C161.476 160.902 162.492 160.214 163.613 159.744C164.733 159.274 165.936 159.032 167.151 159.032C168.365 159.032 169.568 159.274 170.688 159.744C171.809 160.214 172.825 160.902 173.677 161.769C174.53 162.636 175.202 163.664 175.654 164.794C176.107 165.923 176.33 167.132 176.312 168.349C176.331 169.006 176.604 169.63 177.075 170.088C177.545 170.546 178.175 170.802 178.831 170.802C179.487 170.802 180.118 170.546 180.588 170.088C181.058 169.63 181.332 169.006 181.351 168.349C181.351 164.576 179.855 160.957 177.192 158.289C174.529 155.621 170.917 154.122 167.152 154.122C163.386 154.122 159.774 155.621 157.111 158.289C154.449 160.957 152.953 164.576 152.953 168.349V199.984C152.939 203.546 154.26 206.984 156.655 209.617C159.049 212.25 162.343 213.886 165.884 214.203C169.425 214.52 172.956 213.493 175.778 211.327C178.6 209.16 180.507 206.012 181.123 202.503H189.639C190.26 206.006 192.169 209.148 194.989 211.31C197.809 213.471 201.335 214.495 204.872 214.18C208.408 213.864 211.699 212.232 214.093 209.605C216.487 206.978 217.812 203.548 217.806 199.99V168.343C217.798 164.571 216.299 160.957 213.636 158.292C210.974 155.626 207.365 154.128 203.601 154.124ZM167.154 209.163C165.342 209.163 163.571 208.624 162.064 207.616C160.558 206.607 159.384 205.174 158.69 203.497C157.997 201.819 157.816 199.974 158.169 198.194C158.523 196.413 159.395 194.778 160.676 193.494C161.957 192.21 163.59 191.336 165.366 190.982C167.143 190.628 168.985 190.81 170.659 191.504C172.333 192.199 173.764 193.375 174.77 194.885C175.777 196.394 176.314 198.169 176.314 199.984C176.311 202.417 175.345 204.75 173.628 206.471C171.91 208.191 169.582 209.16 167.154 209.163ZM203.601 209.163C201.789 209.162 200.018 208.624 198.512 207.615C197.006 206.606 195.832 205.172 195.139 203.495C194.446 201.818 194.265 199.973 194.619 198.192C194.972 196.412 195.845 194.777 197.126 193.493C198.407 192.21 200.04 191.336 201.817 190.982C203.593 190.628 205.435 190.81 207.109 191.504C208.783 192.199 210.213 193.376 211.22 194.885C212.226 196.394 212.763 198.169 212.763 199.984C212.761 202.418 211.795 204.751 210.077 206.472C208.359 208.193 206.03 209.161 203.601 209.163Z" fill="#023750"/>
<path d="M212.764 199.984C212.764 201.8 212.227 203.575 211.22 205.085C210.214 206.595 208.783 207.772 207.109 208.467C205.435 209.163 203.592 209.345 201.815 208.991C200.037 208.637 198.404 207.762 197.123 206.479C195.841 205.195 194.968 203.559 194.615 201.778C194.261 199.997 194.442 198.151 195.136 196.473C195.829 194.796 197.004 193.362 198.51 192.353C200.017 191.344 201.789 190.806 203.601 190.806C206.03 190.808 208.359 191.775 210.077 193.496C211.795 195.217 212.761 197.55 212.764 199.984Z" fill="#00ADFF"/>
<path d="M176.314 199.984C176.315 201.8 175.778 203.575 174.771 205.085C173.764 206.596 172.333 207.773 170.659 208.468C168.985 209.163 167.142 209.345 165.365 208.991C163.587 208.636 161.954 207.762 160.673 206.478C159.391 205.194 158.519 203.558 158.165 201.777C157.812 199.996 157.993 198.15 158.687 196.472C159.381 194.794 160.555 193.361 162.062 192.352C163.57 191.343 165.341 190.805 167.154 190.806C169.583 190.808 171.911 191.776 173.629 193.496C175.346 195.217 176.312 197.551 176.314 199.984Z" fill="#00ADFF"/>
<path d="M143.614 189.4H134.374C133.741 188.251 132.813 187.294 131.685 186.627C130.558 185.96 129.272 185.609 127.963 185.609C126.654 185.609 125.368 185.96 124.241 186.627C123.113 187.294 122.185 188.251 121.552 189.4H21.7091C21.6807 189.4 21.6543 189.4 21.6259 189.4C21.5327 189.4 21.4435 189.418 21.3522 189.43C21.2744 189.44 21.1973 189.454 21.1211 189.473C21.0441 189.491 20.9682 189.513 20.894 189.54C20.8088 189.574 20.7237 189.606 20.6385 189.637C20.6122 189.656 20.5878 189.66 20.5635 189.674L1.35648 199.564L1.33215 199.58C1.24102 199.632 1.15362 199.69 1.0706 199.755C1.01555 199.784 0.9633 199.819 0.914475 199.858C0.851601 199.911 0.792014 199.967 0.73605 200.027C0.677251 200.088 0.614397 200.145 0.56168 200.208C0.508964 200.271 0.488688 200.317 0.45422 200.366C0.393113 200.449 0.338217 200.535 0.289988 200.626C0.280689 200.636 0.273137 200.647 0.267685 200.659C0.243354 200.705 0.227134 200.758 0.202803 200.817C0.16526 200.904 0.132101 200.993 0.103453 201.083C0.0793004 201.16 0.0603341 201.239 0.0466815 201.319C0.0324886 201.402 0.0162681 201.483 0.00613037 201.561C0.000723469 201.724 0.000723469 201.887 0.00613037 202.05C0.0162681 202.134 0.0324886 202.215 0.0466815 202.292C0.0605598 202.373 0.0795212 202.453 0.103453 202.532C0.131098 202.621 0.164279 202.709 0.202803 202.794C0.221431 202.85 0.243089 202.906 0.267685 202.96C0.276465 202.972 0.283947 202.984 0.289988 202.997C0.308236 203.029 0.330539 203.056 0.344732 203.086C0.403531 203.184 0.468413 203.277 0.535322 203.371C0.56399 203.4 0.590423 203.431 0.614397 203.464C0.81107 203.693 1.04908 203.883 1.31593 204.023C1.33215 204.023 1.34229 204.045 1.35648 204.049L20.5635 213.933C20.5959 213.951 20.6385 213.967 20.677 213.986L20.7723 214.026C20.9048 214.078 21.0402 214.121 21.1779 214.156C21.2015 214.154 21.2252 214.154 21.2488 214.156C21.4008 214.188 21.5557 214.205 21.7111 214.205H121.552C122.185 215.353 123.113 216.311 124.241 216.978C125.368 217.644 126.654 217.996 127.963 217.996C129.272 217.996 130.558 217.644 131.685 216.978C132.813 216.311 133.741 215.353 134.374 214.205H143.612C143.942 214.206 144.269 214.141 144.574 214.015C144.88 213.888 145.157 213.703 145.391 213.469C145.624 213.235 145.81 212.958 145.936 212.652C146.063 212.346 146.128 212.019 146.128 211.688V191.923C146.128 191.592 146.063 191.264 145.937 190.958C145.811 190.652 145.626 190.374 145.392 190.14C145.159 189.905 144.882 189.719 144.576 189.592C144.271 189.466 143.944 189.4 143.614 189.4ZM19.1929 207.558L8.01902 201.804L19.1929 196.059V207.558ZM120.629 209.163H24.2293V194.446H120.64L120.629 209.163ZM130.26 210.652C130.26 210.805 130.245 210.957 130.214 211.107C130.203 211.135 130.195 211.164 130.189 211.194C130.059 211.742 129.731 212.223 129.27 212.545C128.808 212.867 128.245 213.008 127.686 212.941C127.128 212.875 126.614 212.604 126.241 212.182C125.869 211.76 125.664 211.215 125.666 210.652V192.957C125.664 192.394 125.869 191.849 126.242 191.428C126.615 191.006 127.129 190.736 127.688 190.669C128.246 190.603 128.809 190.744 129.27 191.066C129.732 191.388 130.059 191.869 130.189 192.417C130.189 192.449 130.208 192.48 130.214 192.514C130.245 192.66 130.26 192.808 130.26 192.957V210.652ZM141.091 209.163H135.297V194.446H141.091V209.163Z" fill="#023750"/>
<path d="M141.093 194.446H135.297V209.161H141.093V194.446Z" fill="#00ADFF"/>
<path d="M24.2292 194.446V209.163H120.639V194.446H24.2292ZM115.189 204.328H29.5881C28.9323 204.309 28.3096 204.035 27.8524 203.564C27.3951 203.092 27.1393 202.461 27.1393 201.803C27.1393 201.146 27.3951 200.515 27.8524 200.043C28.3096 199.572 28.9323 199.298 29.5881 199.279H115.189C115.845 199.298 116.468 199.572 116.925 200.043C117.382 200.515 117.638 201.146 117.638 201.803C117.638 202.461 117.382 203.092 116.925 203.564C116.468 204.035 115.845 204.309 115.189 204.328Z" fill="#00ADFF"/>
<path d="M117.708 201.805C117.708 202.136 117.643 202.464 117.517 202.771C117.391 203.077 117.205 203.355 116.971 203.59C116.737 203.824 116.46 204.01 116.154 204.137C115.848 204.263 115.52 204.328 115.189 204.328H29.5882C28.9324 204.309 28.3097 204.035 27.8525 203.564C27.3952 203.092 27.1394 202.461 27.1394 201.804C27.1394 201.146 27.3952 200.515 27.8525 200.043C28.3097 199.572 28.9324 199.298 29.5882 199.279H115.189C115.858 199.28 116.498 199.546 116.97 200.02C117.442 200.493 117.708 201.135 117.708 201.805Z" fill="#023750"/>
</g>
<defs>
<clipPath id="clip0_2002_200">
<rect width="239" height="218" fill="white"/>
</clipPath>
</defs>
</svg>
