<svg width="23" height="22" viewBox="0 0 23 22" fill="none" xmlns="http://www.w3.org/2000/svg">
<path d="M17.9789 21.6712V12.9686C17.9789 12.9686 17.4845 11.1481 15.7316 11.2369C13.9786 11.3257 13.3943 11.5922 12.5853 12.5246V21.6712H8.09053V7.90688H12.5853V9.94932C12.5853 9.94932 14.0685 7.10766 17.08 7.32967C19.8667 7.50727 21.9343 9.1945 22.3838 12.791H22.4737V21.6712H17.9789ZM2.69684 6.13084C1.21358 6.13084 0 4.93202 0 3.46679C0 2.00156 1.21358 0.802734 2.69684 0.802734C4.18011 0.802734 5.39368 2.00156 5.39368 3.46679C5.39368 4.93202 4.18011 6.13084 2.69684 6.13084ZM4.94421 21.6712H0.449474V7.90688H4.94421V21.6712Z" fill="white"/>
</svg>
